<?xml version="1.0" encoding="UTF-8" standalone="no"?>
<!-- Created with Inkscape (http://www.inkscape.org/) -->

<svg
   xmlns:dc="http://purl.org/dc/elements/1.1/"
   xmlns:cc="http://creativecommons.org/ns#"
   xmlns:rdf="http://www.w3.org/1999/02/22-rdf-syntax-ns#"
   xmlns:svg="http://www.w3.org/2000/svg"
   xmlns="http://www.w3.org/2000/svg"
   xmlns:xlink="http://www.w3.org/1999/xlink"
   xmlns:sodipodi="http://sodipodi.sourceforge.net/DTD/sodipodi-0.dtd"
   xmlns:inkscape="http://www.inkscape.org/namespaces/inkscape"
   width="210mm"
   height="297mm"
   viewBox="0 0 210 297"
   version="1.1"
   id="svg8"
   inkscape:version="0.92.2 5c3e80d, 2017-08-06"
   sodipodi:docname="SocialNetworks.svg">
  <defs
     id="defs2">
    <linearGradient
       id="linearGradient172">
      <stop
         id="stop173"
         offset="0"
         style="stop-color:#3f2600;stop-opacity:0.6;" />
      <stop
         id="stop174"
         offset="1"
         style="stop-color:#3f2600;stop-opacity:0;" />
    </linearGradient>
    <linearGradient
       id="linearGradient167">
      <stop
         id="stop168"
         offset="0"
         style="stop-color:#ffffff;stop-opacity:0.65;" />
      <stop
         id="stop169"
         offset="1"
         style="stop-color:#ffffff;stop-opacity:0;" />
    </linearGradient>
    <linearGradient
       id="linearGradient162">
      <stop
         id="stop163"
         offset="0"
         style="stop-color:#ffa63f;stop-opacity:1;" />
      <stop
         id="stop164"
         offset="1"
         style="stop-color:#ffff00;stop-opacity:1;" />
    </linearGradient>
    <linearGradient
       id="linearGradient153">
      <stop
         id="stop154"
         offset="0"
         style="stop-color:#ffeed7;stop-opacity:1;" />
      <stop
         id="stop155"
         offset="1"
         style="stop-color:#bdbfc2;stop-opacity:1;" />
    </linearGradient>
    <linearGradient
       id="linearGradient138">
      <stop
         id="stop139"
         offset="0"
         style="stop-color:#ffffff;stop-opacity:0.8;" />
      <stop
         id="stop140"
         offset="1"
         style="stop-color:#ffffff;stop-opacity:0;" />
    </linearGradient>
    <linearGradient
       gradientUnits="objectBoundingBox"
       y2="0.90125799"
       x2="0.417539"
       y1="0.020191999"
       x1="0.47424799"
       id="linearGradient141"
       xlink:href="#linearGradient138" />
    <linearGradient
       gradientUnits="objectBoundingBox"
       y2="0.94531101"
       x2="0.553922"
       y1="0.031192999"
       x1="0.55880702"
       id="linearGradient142"
       xlink:href="#linearGradient167" />
    <linearGradient
       gradientUnits="objectBoundingBox"
       y2="0.93366498"
       x2="0.41365999"
       y1="0.028819799"
       x1="0.46557701"
       id="linearGradient143"
       xlink:href="#linearGradient167" />
    <linearGradient
       gradientUnits="objectBoundingBox"
       y2="0.94063401"
       x2="0.64553201"
       y1="0.059404202"
       x1="0.70346397"
       id="linearGradient144"
       xlink:href="#linearGradient167" />
    <linearGradient
       gradientUnits="objectBoundingBox"
       y2="0.75857902"
       x2="0.86741799"
       y1="-0.036155298"
       x1="0.46741399"
       id="linearGradient145"
       xlink:href="#linearGradient167" />
    <linearGradient
       gradientUnits="objectBoundingBox"
       y2="0.71875"
       x2="0.57143003"
       y1="0.023441499"
       x1="0.57152498"
       id="linearGradient146"
       xlink:href="#linearGradient167" />
    <linearGradient
       gradientUnits="objectBoundingBox"
       y2="0.8125"
       x2="0.5"
       y1="0.0234362"
       x1="0.5"
       id="linearGradient147"
       xlink:href="#linearGradient167" />
    <linearGradient
       gradientUnits="objectBoundingBox"
       y2="0.92820501"
       x2="0.51599997"
       y1="0.37435901"
       x1="0.50799799"
       id="linearGradient148"
       xlink:href="#linearGradient167" />
    <linearGradient
       gradientUnits="objectBoundingBox"
       y2="0.94634098"
       x2="0.50400001"
       y1="0.131707"
       x1="0.5"
       id="linearGradient149"
       xlink:href="#linearGradient138" />
    <linearGradient
       gradientTransform="matrix(-0.928523,0.283938,0.435332,0.943857,-1.91327e-7,5.49908e-8)"
       gradientUnits="objectBoundingBox"
       y2="0.94191301"
       x2="0.156323"
       y1="0.099496603"
       x1="-0.30509499"
       id="linearGradient150"
       xlink:href="#linearGradient167" />
    <linearGradient
       gradientUnits="objectBoundingBox"
       y2="1.02569"
       x2="0.487055"
       y1="0.022184599"
       x1="0.433979"
       id="linearGradient151"
       xlink:href="#linearGradient167" />
    <linearGradient
       spreadMethod="reflect"
       gradientUnits="objectBoundingBox"
       y2="0.40625"
       x2="0.5"
       y1="0.89842999"
       x1="0.5"
       id="linearGradient152"
       xlink:href="#linearGradient153" />
    <linearGradient
       gradientUnits="objectBoundingBox"
       y2="0.23093501"
       x2="0.453989"
       y1="0.98882002"
       x1="0.43568701"
       id="linearGradient156"
       xlink:href="#linearGradient153" />
    <linearGradient
       gradientUnits="objectBoundingBox"
       y2="0.41252401"
       x2="0.49482101"
       y1="1.15284"
       x1="0.49180499"
       id="linearGradient157"
       xlink:href="#linearGradient153" />
    <linearGradient
       gradientUnits="objectBoundingBox"
       y2="0.136172"
       x2="0.49843901"
       y1="0.85418499"
       x1="0.51730198"
       id="linearGradient158"
       xlink:href="#linearGradient153" />
    <linearGradient
       gradientUnits="objectBoundingBox"
       y2="0.096282303"
       x2="0.49215299"
       y1="0.87917101"
       x1="0.46201"
       id="linearGradient159"
       xlink:href="#linearGradient153" />
    <linearGradient
       gradientUnits="objectBoundingBox"
       y2="0.98558098"
       x2="0.41209599"
       y1="0.34872901"
       x1="0.50086302"
       id="linearGradient161"
       xlink:href="#linearGradient162" />
    <linearGradient
       gradientUnits="objectBoundingBox"
       y2="0.98367399"
       x2="0.46399999"
       y1="0.51020199"
       x1="0.60399801"
       id="linearGradient165"
       xlink:href="#linearGradient162" />
    <linearGradient
       gradientUnits="objectBoundingBox"
       y2="0.97005898"
       x2="0.50800002"
       y1="0.191616"
       x1="0.50000501"
       id="linearGradient166"
       xlink:href="#linearGradient162" />
    <radialGradient
       gradientUnits="objectBoundingBox"
       r="0.5"
       fy="0.5"
       fx="0.5"
       cy="0.5"
       cx="0.5"
       id="radialGradient171"
       xlink:href="#linearGradient172" />
    <radialGradient
       id="radialGradient176"
       xlink:href="#linearGradient172" />
    <linearGradient
       gradientUnits="objectBoundingBox"
       y2="-0.675295"
       x2="0.19452"
       y1="1.2934099"
       x1="0.94027299"
       id="linearGradient178"
       xlink:href="#linearGradient153" />
    <radialGradient
       gradientUnits="userSpaceOnUse"
       r="195.07191"
       fy="1219.4125"
       fx="446.77762"
       cy="1219.4125"
       cx="446.77762"
       gradientTransform="scale(1.045233,0.956725)"
       id="radialGradient1399"
       xlink:href="#linearGradient172" />
    <linearGradient
       gradientTransform="scale(0.575262,1.738339)"
       y2="304.07886"
       x2="400.84448"
       y1="369.53015"
       x1="400.57785"
       gradientUnits="userSpaceOnUse"
       id="linearGradient1401"
       xlink:href="#linearGradient153" />
    <linearGradient
       gradientTransform="scale(1.116071,0.896001)"
       y2="330.09561"
       x2="297.0856"
       y1="237.93179"
       x1="303.01761"
       gradientUnits="userSpaceOnUse"
       id="linearGradient1403"
       xlink:href="#linearGradient138" />
    <linearGradient
       y2="243.91606"
       x2="380.27319"
       y1="278.60202"
       x1="378.93771"
       gradientTransform="scale(0.816497,1.224744)"
       gradientUnits="userSpaceOnUse"
       id="linearGradient1405"
       xlink:href="#linearGradient153" />
    <linearGradient
       gradientTransform="scale(0.816497,1.224744)"
       y2="245.68338"
       x2="380.5517"
       y1="277.495"
       x1="381.38742"
       gradientUnits="userSpaceOnUse"
       id="linearGradient1407"
       xlink:href="#linearGradient153" />
    <linearGradient
       y2="281.01636"
       x2="376.79556"
       y1="240.92712"
       x1="379.09573"
       gradientTransform="scale(0.816497,1.224744)"
       gradientUnits="userSpaceOnUse"
       id="linearGradient1409"
       xlink:href="#linearGradient167" />
    <linearGradient
       gradientTransform="scale(0.816497,1.224744)"
       y2="281.32513"
       x2="387.06866"
       y1="242.28218"
       x1="389.63535"
       gradientUnits="userSpaceOnUse"
       id="linearGradient1411"
       xlink:href="#linearGradient167" />
    <linearGradient
       gradientTransform="scale(0.812855,1.230232)"
       y2="394.10361"
       x2="437.57941"
       y1="528.87177"
       x1="437.57941"
       spreadMethod="reflect"
       gradientUnits="userSpaceOnUse"
       id="linearGradient1413"
       xlink:href="#linearGradient153" />
    <linearGradient
       gradientTransform="scale(0.649784,1.538974)"
       y2="324.03815"
       x2="377.48541"
       y1="419.78485"
       x1="375.17325"
       gradientUnits="userSpaceOnUse"
       id="linearGradient1415"
       xlink:href="#linearGradient153" />
    <linearGradient
       gradientTransform="scale(1.074798,0.930408)"
       y2="614.50439"
       x2="321.32224"
       y1="498.17776"
       x1="320.75104"
       gradientUnits="userSpaceOnUse"
       id="linearGradient1417"
       xlink:href="#linearGradient138" />
    <linearGradient
       gradientTransform="scale(1.077001,0.928504)"
       y2="488.48251"
       x2="323.2514"
       y1="435.26761"
       x1="322.48257"
       gradientUnits="userSpaceOnUse"
       id="linearGradient1419"
       xlink:href="#linearGradient167" />
    <linearGradient
       gradientTransform="scale(0.571707,1.749147)"
       y2="331.44858"
       x2="411.2215"
       y1="242.94365"
       x1="411.2215"
       gradientUnits="userSpaceOnUse"
       id="linearGradient1421"
       xlink:href="#linearGradient167" />
    <linearGradient
       gradientTransform="scale(0.572667,1.746214)"
       y2="314.83911"
       x2="867.33453"
       y1="234.73897"
       x1="867.34546"
       gradientUnits="userSpaceOnUse"
       id="linearGradient1423"
       xlink:href="#linearGradient167" />
    <linearGradient
       gradientTransform="scale(1.011514,0.988617)"
       y2="737.41229"
       x2="212.5099"
       y1="657.11133"
       x1="236.25362"
       gradientUnits="userSpaceOnUse"
       id="linearGradient1425"
       xlink:href="#linearGradient162" />
    <linearGradient
       gradientTransform="scale(1.065499,0.938527)"
       y2="386.66583"
       x2="279.64313"
       y1="655.73102"
       x1="381.56607"
       gradientUnits="userSpaceOnUse"
       id="linearGradient1427"
       xlink:href="#linearGradient153" />
    <linearGradient
       gradientTransform="scale(1.009851,0.990245)"
       y2="737.8537"
       x2="203.12654"
       y1="630.30475"
       x1="218.11714"
       gradientUnits="userSpaceOnUse"
       id="linearGradient1429"
       xlink:href="#linearGradient162" />
    <linearGradient
       y2="704.73077"
       x2="182.24524"
       y1="587.23602"
       x1="117.88966"
       gradientTransform="scale(1.007724,0.992335)"
       gradientUnits="userSpaceOnUse"
       id="linearGradient1431"
       xlink:href="#linearGradient167" />
    <linearGradient
       gradientTransform="scale(0.999504,1.000496)"
       y2="710.97723"
       x2="230.53499"
       y1="570.41809"
       x1="223.10072"
       gradientUnits="userSpaceOnUse"
       id="linearGradient1433"
       xlink:href="#linearGradient167" />
    <linearGradient
       gradientTransform="scale(1.065499,0.938527)"
       y2="582.63507"
       x2="371.60889"
       y1="474.01779"
       x1="316.93988"
       gradientUnits="userSpaceOnUse"
       id="linearGradient1435"
       xlink:href="#linearGradient167" />
    <linearGradient
       gradientTransform="scale(1.218684,0.820557)"
       y2="485.69934"
       x2="285.45923"
       y1="410.46326"
       x1="284.68652"
       gradientUnits="userSpaceOnUse"
       id="linearGradient1437"
       xlink:href="#linearGradient162" />
    <linearGradient
       gradientTransform="scale(1.221941,0.81837)"
       y2="482.55939"
       x2="288.37628"
       y1="398.85422"
       x1="288.82358"
       gradientUnits="userSpaceOnUse"
       id="linearGradient1439"
       xlink:href="#linearGradient167" />
    <linearGradient
       y2="482.55939"
       x2="288.37628"
       y1="398.85422"
       x1="288.82358"
       gradientTransform="matrix(0.76723842,0,0,0.48747518,81.6136,-12.43538)"
       gradientUnits="userSpaceOnUse"
       id="linearGradient3073"
       xlink:href="#linearGradient167"
       inkscape:collect="always" />
    <linearGradient
       y2="485.69934"
       x2="285.45923"
       y1="410.46326"
       x1="284.68652"
       gradientTransform="matrix(1.523355,0,0,1.0256962,-125.2984,-231.75768)"
       gradientUnits="userSpaceOnUse"
       id="linearGradient3077"
       xlink:href="#linearGradient162"
       inkscape:collect="always" />
    <linearGradient
       y2="582.63507"
       x2="371.60889"
       y1="474.01779"
       x1="316.93988"
       gradientTransform="matrix(0.37423628,0.15925268,-0.12093484,0.32235493,413.7696,254.03832)"
       gradientUnits="userSpaceOnUse"
       id="linearGradient3080"
       xlink:href="#linearGradient167"
       inkscape:collect="always" />
    <linearGradient
       y2="710.97723"
       x2="230.53499"
       y1="570.41809"
       x1="223.10072"
       gradientTransform="matrix(1.0038119,-0.05226007,-0.01740863,1.0462687,-66.5614,-92.71798)"
       gradientUnits="userSpaceOnUse"
       id="linearGradient3084"
       xlink:href="#linearGradient167"
       inkscape:collect="always" />
    <linearGradient
       y2="704.73077"
       x2="182.24524"
       y1="587.23602"
       x1="117.88966"
       gradientTransform="matrix(-0.95239592,0.34640009,0.42082546,0.94872982,403.5756,-128.59468)"
       gradientUnits="userSpaceOnUse"
       id="linearGradient3087"
       xlink:href="#linearGradient167"
       inkscape:collect="always" />
    <linearGradient
       y2="737.8537"
       x2="203.12654"
       y1="630.30475"
       x1="218.11714"
       gradientTransform="matrix(-1.1800109,0.4273134,0.47064661,1.1534176,417.5906,-278.07368)"
       gradientUnits="userSpaceOnUse"
       id="linearGradient3090"
       xlink:href="#linearGradient162"
       inkscape:collect="always" />
    <linearGradient
       y2="386.66583"
       x2="279.64313"
       y1="655.73102"
       x1="381.56607"
       gradientTransform="matrix(0.63738789,0.28617598,-0.22489266,0.57927107,389.8156,76.21132)"
       gradientUnits="userSpaceOnUse"
       id="linearGradient3093"
       xlink:href="#linearGradient153"
       inkscape:collect="always" />
    <linearGradient
       y2="737.41229"
       x2="212.5099"
       y1="657.11133"
       x1="236.25362"
       gradientTransform="matrix(1.2643925,0,0,1.2357712,-125.2984,-231.75768)"
       gradientUnits="userSpaceOnUse"
       id="linearGradient3096"
       xlink:href="#linearGradient162"
       inkscape:collect="always" />
    <linearGradient
       y2="314.83911"
       x2="867.33453"
       y1="234.73897"
       x1="867.34546"
       gradientTransform="matrix(0.71583375,0,0,2.1827675,-125.2984,-231.75768)"
       gradientUnits="userSpaceOnUse"
       id="linearGradient3099"
       xlink:href="#linearGradient167"
       inkscape:collect="always" />
    <linearGradient
       y2="331.44858"
       x2="411.2215"
       y1="242.94365"
       x1="411.2215"
       gradientTransform="matrix(0.71463375,0,0,2.1864338,-125.2984,-231.75768)"
       gradientUnits="userSpaceOnUse"
       id="linearGradient3102"
       xlink:href="#linearGradient167"
       inkscape:collect="always" />
    <linearGradient
       y2="488.48251"
       x2="323.2514"
       y1="435.26761"
       x1="322.48257"
       gradientTransform="matrix(1.2781848,0,0,0.99078805,-100.1294,-164.33068)"
       gradientUnits="userSpaceOnUse"
       id="linearGradient3105"
       xlink:href="#linearGradient167"
       inkscape:collect="always" />
    <linearGradient
       y2="614.50439"
       x2="321.32224"
       y1="498.17776"
       x1="320.75104"
       gradientTransform="matrix(1.3994837,0,0,1.1399824,-140.7104,-217.80968)"
       gradientUnits="userSpaceOnUse"
       id="linearGradient3108"
       xlink:href="#linearGradient138"
       inkscape:collect="always" />
    <linearGradient
       y2="324.03815"
       x2="377.48541"
       y1="419.78485"
       x1="375.17325"
       gradientTransform="matrix(0.9027839,-0.07217411,0.15730007,2.0039596,-202.3394,-230.19068)"
       gradientUnits="userSpaceOnUse"
       id="linearGradient3112"
       xlink:href="#linearGradient153"
       inkscape:collect="always" />
    <linearGradient
       y2="394.10361"
       x2="437.57941"
       y1="528.87177"
       x1="437.57941"
       spreadMethod="reflect"
       gradientTransform="matrix(1.0160687,0,0,1.53779,-125.2984,-232.48268)"
       gradientUnits="userSpaceOnUse"
       id="linearGradient3115"
       xlink:href="#linearGradient153"
       inkscape:collect="always" />
    <linearGradient
       y2="281.32513"
       x2="387.06866"
       y1="242.28218"
       x1="389.63535"
       gradientTransform="matrix(0.29141594,-0.03333031,0.05061034,0.48811437,138.5816,50.73832)"
       gradientUnits="userSpaceOnUse"
       id="linearGradient3118"
       xlink:href="#linearGradient167"
       inkscape:collect="always" />
    <linearGradient
       y2="281.01636"
       x2="376.79556"
       y1="240.92712"
       x1="379.09573"
       gradientTransform="matrix(-0.39218229,-0.02976458,-0.05731006,0.58249559,783.9936,46.594466)"
       gradientUnits="userSpaceOnUse"
       id="linearGradient3121"
       xlink:href="#linearGradient167"
       inkscape:collect="always" />
    <linearGradient
       y2="245.68338"
       x2="380.5517"
       y1="277.495"
       x1="381.38742"
       gradientTransform="matrix(-1.4785291,0.04042534,0.03886407,1.9024316,896.7076,-349.02968)"
       gradientUnits="userSpaceOnUse"
       id="linearGradient3126"
       xlink:href="#linearGradient153"
       inkscape:collect="always" />
    <linearGradient
       y2="330.09561"
       x2="297.0856"
       y1="237.93179"
       x1="303.01761"
       gradientTransform="matrix(1.4132361,-0.0796503,-0.04119768,1.0713842,-108.6094,-190.01368)"
       gradientUnits="userSpaceOnUse"
       id="linearGradient3132"
       xlink:href="#linearGradient138"
       inkscape:collect="always" />
    <linearGradient
       y2="304.07886"
       x2="400.84448"
       y1="369.53015"
       x1="400.57785"
       gradientTransform="matrix(-0.96493873,-0.01291555,-0.03671998,2.5569228,862.8276,-357.26968)"
       gradientUnits="userSpaceOnUse"
       id="linearGradient3136"
       xlink:href="#linearGradient153"
       inkscape:collect="always" />
    <radialGradient
       r="195.07191"
       fy="1219.4125"
       fx="446.77762"
       cy="1219.4125"
       cx="446.77762"
       gradientTransform="matrix(1.4818268,0,0,0.39679691,-349.5468,157.94132)"
       gradientUnits="userSpaceOnUse"
       id="radialGradient3140"
       xlink:href="#linearGradient172"
       inkscape:collect="always" />
    <linearGradient
       y2="245.68338"
       x2="380.5517"
       y1="277.495"
       x1="381.38742"
       gradientTransform="matrix(-0.95011672,0.04042534,0.02497442,1.9024316,703.17148,-344.26273)"
       gradientUnits="userSpaceOnUse"
       id="linearGradient3126-1"
       xlink:href="#linearGradient153"
       inkscape:collect="always" />
    <linearGradient
       inkscape:collect="always"
       xlink:href="#linearGradient153"
       id="linearGradient3157"
       gradientUnits="userSpaceOnUse"
       gradientTransform="matrix(-0.95011672,0.04042534,0.02497442,1.9024316,996.59996,-329.07857)"
       x1="381.38742"
       y1="277.495"
       x2="380.5517"
       y2="245.68338" />
    <radialGradient
       gradientUnits="userSpaceOnUse"
       gradientTransform="matrix(1.3839909,0,0,1.3204594,30.063905,-72.93533)"
       r="21.383217"
       fy="16.191208"
       fx="24.573744"
       cy="16.191208"
       cx="24.573744"
       id="radialGradient5748"
       xlink:href="#linearGradient5742"
       inkscape:collect="always" />
    <linearGradient
       id="linearGradient5742">
      <stop
         id="stop5744"
         offset="0"
         style="stop-color:#14b3d3;stop-opacity:1;" />
      <stop
         style="stop-color:#0c6f8a;stop-opacity:1;"
         offset="0.81566811"
         id="stop5750" />
      <stop
         id="stop5746"
         offset="1"
         style="stop-color:#51bbee;stop-opacity:1;" />
    </linearGradient>
    <radialGradient
       gradientUnits="userSpaceOnUse"
       gradientTransform="matrix(1.1117706,0,0,1.0607354,36.753376,-70.866166)"
       r="21.383217"
       fy="5.64853"
       fx="24.573744"
       cy="5.64853"
       cx="24.573744"
       id="radialGradient5640"
       xlink:href="#linearGradient5634"
       inkscape:collect="always" />
    <linearGradient
       id="linearGradient5634">
      <stop
         id="stop5636"
         offset="0"
         style="stop-color:#22a4aa;stop-opacity:1;" />
      <stop
         id="stop5638"
         offset="1"
         style="stop-color:#164e85;stop-opacity:1;" />
    </linearGradient>
    <radialGradient
       inkscape:collect="always"
       xlink:href="#linearGradient5634"
       id="radialGradient3848"
       gradientUnits="userSpaceOnUse"
       gradientTransform="matrix(7.8819922,0,0,7.520174,130.77329,-15.651658)"
       cx="24.573744"
       cy="5.64853"
       fx="24.573744"
       fy="5.64853"
       r="21.383217" />
  </defs>
  <sodipodi:namedview
     id="base"
     pagecolor="#ffffff"
     bordercolor="#666666"
     borderopacity="1.0"
     inkscape:pageopacity="0.0"
     inkscape:pageshadow="2"
     inkscape:zoom="0.98994949"
     inkscape:cx="298.84143"
     inkscape:cy="379.23945"
     inkscape:document-units="mm"
     inkscape:current-layer="layer1"
     showgrid="false"
     inkscape:window-width="1920"
     inkscape:window-height="1046"
     inkscape:window-x="0"
     inkscape:window-y="0"
     inkscape:window-maximized="1" />
  <metadata
     id="metadata5">
    <rdf:RDF>
      <cc:Work
         rdf:about="">
        <dc:format>image/svg+xml</dc:format>
        <dc:type
           rdf:resource="http://purl.org/dc/dcmitype/StillImage" />
        <dc:title></dc:title>
      </cc:Work>
    </rdf:RDF>
  </metadata>
  <g
     inkscape:label="Layer 1"
     inkscape:groupmode="layer"
     id="layer1">
    <circle
       style="fill:none;fill-opacity:0.4;stroke:#ff0000;stroke-width:0.40532899;stroke-opacity:0.4"
       id="path817"
       cx="99.21875"
       cy="197.78125"
       r="99.016083" />
    <rect
       style="fill:#dceec8;fill-opacity:1;stroke:none;stroke-width:0.29497159;stroke-opacity:0.4"
       id="rect815"
       width="198.4375"
       height="198.4375"
       x="0"
       y="98.5625"
       inkscape:export-filename="/home/vinicius/rect815.png"
       inkscape:export-xdpi="96"
       inkscape:export-ydpi="96" />
    <g
       id="g3140"
       transform="matrix(0.26458333,0,0,0.26458333,16.536463,98.562495)">
      <g
         id="g3178">
        <path
           d="m 601.56264,641.80038 a 289.06266,77.403977 0 1 1 -578.125329,0 289.06266,77.403977 0 1 1 578.125329,0 z"
           id="path175"
           style="fill:url(#radialGradient3140);stroke:none"
           inkscape:connector-curvature="0" />
        <path
           id="path106"
           d="m 154.23535,558.54232 c -27.985,-40.27875 -33.4425,-171.23 31.85875,-251.7875 32.3575,-38.6475 40.6125,-65.58125 43.16375,-101.74125 1.73625,-41.22375 -29.15625,-164.3025 87.35375,-173.68 118.0075,-9.415 111.67,107.075 110.99125,168.71875 -0.56375,52.05 38.2175,81.55125 64.745,122.11875 49.09875,74.5375 44.94625,202.875 -9.24875,272.34 -68.64625,86.96 -127.44125,49.2475 -166.4875,52.4125 -73.11625,4.0025 -75.53375,42.98875 -162.37625,-88.38125 z"
           style="fill:#000000;stroke:none"
           inkscape:connector-curvature="0" />
        <path
           id="path113"
           d="m 439.28553,329.78826 c 20.26561,18.65516 73.00993,102.62419 -10.3928,154.86471 -29.40144,18.19192 26.21387,87.87889 52.91791,54.124 47.12477,-60.59692 17.07201,-157.10124 -11.19745,-191.68021 -19.19669,-24.51234 -48.55112,-34.01039 -31.32766,-17.3085 z"
           style="fill:url(#linearGradient3136);stroke:none"
           inkscape:connector-curvature="0" />
        <path
           id="path111"
           d="m 433.55422,318.33735 c 33.40841,26.9961 94.23805,122.03786 5.51578,183.77219 -29.13904,19.24788 25.82253,79.93997 56.68442,48.89529 107.30113,-107.91127 -2.79984,-231.99551 -40.70072,-274.65414 -33.87309,-37.09849 -63.87775,8.76456 -21.49948,41.98666 z"
           style="fill:#000000;stroke:#000000;stroke-width:1.5625006"
           inkscape:connector-curvature="0" />
        <path
           d="m 385.47862,90.159699 a 55.501609,74.465629 79.82218 1 1 -147.83137,8.33181 55.501609,74.465629 79.82218 0 1 147.83137,-8.33181 z"
           id="path114"
           style="fill:url(#linearGradient3132);stroke:none"
           inkscape:connector-curvature="0" />
        <path
           d="m 287.71976,163.7741 a 36.485586,23.63373 86.731112 1 1 -47.18842,2.73239 36.485586,23.63373 86.731112 1 1 47.18842,-2.73239 z"
           id="path115"
           style="fill:#ffffff;stroke:none"
           inkscape:connector-curvature="0" />
        <path
           d="m 274.23111,170.71142 a 19.243569,10.825565 85.064337 1 1 -21.50167,2.6153 19.243569,10.825565 85.064337 1 1 21.50167,-2.6153 z"
           id="path118"
           style="fill:#000000;stroke:none"
           inkscape:connector-curvature="0" />
        <path
           d="m 269.20611,165.10351 a 10.87128,6.4971253 84.416722 1 1 -12.9112,1.4767 10.87128,6.4971253 84.416722 1 1 12.9112,-1.4767 z"
           id="path122"
           style="fill:url(#linearGradient3118);stroke:none"
           inkscape:connector-curvature="0" />
        <path
           id="path128"
           d="m 198.0791,386.79857 c 16.045,-36.37875 50.1425,-100.2825 50.86875,-149.6975 0,-39.3025 117.72375,-48.68875 127.17125,-9.4475 9.4475,39.24125 33.42625,98.10375 48.6875,126.445 15.26,28.34 59.76125,118.36875 12.355,196.9325 -42.69625,69.555 -172.15625,124.5825 -241.2625,-9.44625 -23.25375,-46.50875 -19.10625,-104.14375 2.18,-154.78625 z"
           style="fill:url(#linearGradient3115);stroke:none"
           inkscape:connector-curvature="0" />
        <path
           id="path112"
           d="m 183.5722,359.80235 c -13.70973,25.94872 -42.23814,94.19315 27.29298,131.53138 74.84844,39.6412 74.48854,121.22637 -15.35126,82.40762 -82.13287,-35.08728 -45.82235,-176.86876 -22.85138,-210.79211 15.06152,-23.75981 37.65051,-52.84247 10.90966,-3.14689 z"
           style="fill:url(#linearGradient3112);stroke:none"
           inkscape:connector-curvature="0" />
        <path
           id="path109"
           d="m 195.34285,330.39232 c -21.83125,35.635 -74.22125,119.76625 -4.11,163.40375 94.46125,57.94375 67.71625,115.88875 -18.49875,63.7175 -121.38625,-72.83 -14.78125,-219.52 33.91375,-275.4225 55.555,-62.75 10.6925,11.35875 -11.305,48.30125 z"
           style="fill:#000000;stroke:#000000;stroke-width:1.5625"
           inkscape:connector-curvature="0" />
        <path
           id="path125"
           d="m 408.0958,400.60708 c 0,39.7128 -38.11478,91.30073 -103.55262,90.83758 -67.48472,0.55749 -96.28825,-51.12478 -96.28825,-90.83758 0,-39.71281 44.76455,-71.94301 99.92108,-71.94301 55.15523,0 99.91979,32.2302 99.91979,71.94301 z"
           style="font-size:12px;fill:url(#linearGradient3108);stroke:none"
           inkscape:connector-curvature="0" />
        <path
           id="path127"
           d="m 372.4864,275.61787 c -0.72632,41.15941 -27.51002,50.86877 -61.40503,50.86877 -33.89619,0 -58.49974,-6.07596 -61.40622,-50.86877 0,-28.07915 27.51003,-44.32864 61.40622,-44.32864 33.89501,0 61.40503,16.24949 61.40503,44.32864 z"
           style="font-size:12px;fill:url(#linearGradient3105);stroke:none"
           inkscape:connector-curvature="0" />
        <path
           id="path129"
           d="m 167.55785,338.83607 c 22.145,-33.745 68.76875,-85.455 8.72125,7.26625 -48.68875,76.30375 -18.00375,125.34125 -2.18,138.79875 45.65875,40.7025 43.7075,67.93625 7.99375,46.5075 -77.03125,-45.7825 -61.04375,-122.81 -14.535,-192.5725 z"
           style="fill:url(#linearGradient3102);stroke:none"
           inkscape:connector-curvature="0" />
        <path
           id="path131"
           d="m 488.0291,352.64232 c -19.14875,-39.62625 -80.1675,-139.8775 2.9075,-23.25375 75.57625,105.37125 22.5275,178.76625 13.08,186.03375 -9.44625,7.26625 -41.42125,21.8 -31.97375,-3.63375 9.44625,-25.43375 56.5425,-73.71625 15.98625,-159.14625 z"
           style="fill:url(#linearGradient3099);stroke:none"
           inkscape:connector-curvature="0" />
        <path
           id="path132"
           d="m 150.84535,664.39357 c -50.5525,-26.77 -124.065,5.155 -97.3775,-67.5825 5.345,-16.5475 -7.96875,-41.26 0.72625,-57.4075 10.17375,-19.6225 31.975,-15.26125 45.05625,-28.3425 12.8975,-13.61375 21.07375,-37.06125 45.055,-33.4275 23.98,3.63375 39.93125,33.07625 56.68,69.03625 12.35375,25.7975 56.17625,62.08 53.3125,90.9475 -3.37,44.375 -53.78375,52.7375 -103.4525,26.77625 z"
           style="fill:url(#linearGradient3096);stroke:#e68c3f;stroke-width:7.8125"
           inkscape:connector-curvature="0" />
        <path
           id="path177"
           d="m 519.3177,493.685 c -7.76685,14.56468 -39.78514,37.67639 -61.1235,31.65243 -21.77317,-5.90824 -31.57846,-38.86485 -27.31463,-63.80719 3.95824,-28.0889 27.31396,-29.48496 56.60287,-15.62952 31.48864,15.33666 41.01103,28.48142 31.83526,47.78428 z"
           style="font-size:12px;fill:url(#linearGradient3093);stroke:none"
           inkscape:connector-curvature="0" />
        <path
           id="path133"
           d="m 501.64469,651.91444 c 37.07867,-44.96447 119.3901,-35.74105 63.87893,-97.39264 -11.74501,-13.21733 -8.23927,-41.87176 -22.50706,-53.97499 -16.97141,-14.84074 -35.69264,-2.6696 -52.89483,-10.43081 -17.23289,-8.31961 -35.24454,-24.49353 -56.28056,-12.98948 -21.03486,11.50363 -23.29814,41.43139 -25.28193,80.6095 -1.7394,28.22067 -27.45535,75.41128 -13.80213,101.34128 20.02282,40.20889 71.53459,34.88527 106.88758,-7.16286 z"
           style="fill:url(#linearGradient3090);stroke:#e68c3f;stroke-width:7.81249762"
           inkscape:connector-curvature="0" />
        <path
           id="path134"
           d="m 485.519,591.80919 c 57.39446,-84.7208 14.61817,-84.10376 0.28978,-90.51162 -14.37011,-6.86566 -29.61147,-20.17173 -46.51035,-10.79772 -16.89793,9.37366 -17.86494,33.89995 -18.32847,66.00967 -0.5883,23.12835 -19.95088,61.5701 -8.30509,83.03449 13.96907,25.01949 47.87108,-11.31919 72.85413,-47.73482 z"
           style="fill:url(#linearGradient3087);stroke:none"
           inkscape:connector-curvature="0" />
        <path
           id="path135"
           d="m 139.09671,604.00879 c -85.903401,-55.60941 -45.718582,-74.489 -32.67804,-83.22366 15.63836,-11.202 15.75979,-33.03407 34.9769,-30.99719 19.2161,2.03695 30.40316,25.69491 43.35935,55.07847 9.56649,21.06544 42.39441,48.90456 40.04731,73.21176 -3.09899,28.48707 -48.49327,9.71108 -85.70552,-14.06938 z"
           style="fill:url(#linearGradient3084);stroke:none"
           inkscape:connector-curvature="0" />
        <path
           id="path136"
           d="m 514.16393,492.89388 c -6.6941,11.67297 -34.29008,30.19601 -52.68126,25.36805 -18.76593,-4.73521 -27.217,-31.14855 -23.54212,-51.13877 3.4115,-22.51207 23.54139,-23.63094 48.78503,-12.52638 27.13955,12.29171 35.34675,22.82668 27.43835,38.2971 z"
           style="font-size:12px;fill:#000000;stroke:none"
           inkscape:connector-curvature="0" />
        <path
           id="path137"
           d="m 495.67359,486.35579 c -4.26544,8.10501 -22.45249,20.96628 -34.92302,17.61403 -12.72075,-3.28785 -18.94415,-21.62768 -16.87926,-35.50768 1.83631,-15.63103 15.35536,-16.4079 32.56358,-8.69755 18.50784,8.53462 24.24366,15.84947 19.2387,26.5912 z"
           style="font-size:12px;fill:url(#linearGradient3080);stroke:none"
           inkscape:connector-curvature="0" />
        <path
           id="path119"
           d="m 262.1441,191.65357 c 8.93375,-8.4625 31.01375,-33.8325 72.45125,-7.19375 7.7025,5.0125 13.9525,5.47125 28.77625,11.81875 29.6575,12.18625 15.4775,41.57375 -15.93,51.385 -13.4475,4.36125 -25.67,20.695 -50.16125,19.29875 -20.9175,-1.22125 -26.39875,-14.8425 -39.2475,-22.3825 -22.83625,-12.88875 -26.20625,-30.3175 -13.875,-39.56625 12.3325,-9.24875 17.15625,-12.57375 17.98625,-13.36 z"
           style="fill:url(#linearGradient3077);stroke:#e68c3f;stroke-width:4.6875"
           inkscape:connector-curvature="0" />
        <path
           sodipodi:nodetypes="csc"
           id="path120"
           d="m 363.76535,215.29857 c -9.17578,7.87667 -39.24125,27.61375 -67.5825,27.61375 -28.34125,0 -45.055,-19.80532 -49.415,-26.16125"
           style="fill:none;stroke:#e68c3f;stroke-width:3.125"
           inkscape:connector-curvature="0" />
        <path
           id="path123"
           d="m 276.22907,189.33397 c 4.48749,-4.03266 18.64253,-15.09894 37.41441,-3.76938 3.95505,2.24328 8.03944,4.68492 14.1136,8.02005 12.03153,6.99789 6.07227,17.08251 -8.34208,23.46328 -6.54131,2.67752 -17.32523,8.58653 -25.53671,8.17314 -9.12506,-0.8387 -15.02843,-6.79 -21.07622,-10.666 -11.09473,-7.32848 -10.42101,-13.24582 -5.26733,-18.17258 3.89603,-3.38278 8.27741,-6.67384 8.69433,-7.04851 z"
           style="fill:url(#linearGradient3073);stroke:none"
           inkscape:connector-curvature="0" />
        <path
           sodipodi:nodetypes="cssscccc"
           d="m 310.90584,158.78923 c 3.09713,4.46788 12.01912,0.94181 19.33288,-2.33942 5.45427,-2.447 11.36382,-4.56827 14.39108,-4.66557 3.51208,-0.11287 11.2169,0.70733 16.07718,5.00146 4.80923,4.24903 9.93213,11.62249 12.5368,7.49018 5.97468,-10.12668 -3.28494,-14.26501 -8.26925,-19.0874 -9.78819,-5.10882 -12.99367,-6.38506 -20.28898,-6.1506 -12.93232,0.0603 -38.65292,10.83691 -33.77971,19.75135 z"
           id="path116-9"
           style="fill:#ffffff;stroke:none"
           inkscape:connector-curvature="0" />
      </g>
    </g>
  </g>
</svg>
