<?xml version="1.0" encoding="UTF-8" standalone="no"?>
<!-- Created with Inkscape (http://www.inkscape.org/) -->

<svg
   xmlns:dc="http://purl.org/dc/elements/1.1/"
   xmlns:cc="http://creativecommons.org/ns#"
   xmlns:rdf="http://www.w3.org/1999/02/22-rdf-syntax-ns#"
   xmlns:svg="http://www.w3.org/2000/svg"
   xmlns="http://www.w3.org/2000/svg"
   xmlns:sodipodi="http://sodipodi.sourceforge.net/DTD/sodipodi-0.dtd"
   xmlns:inkscape="http://www.inkscape.org/namespaces/inkscape"
   width="256"
   height="256"
   id="svg3234"
   version="1.1"
   inkscape:version="0.92.2 5c3e80d, 2017-08-06"
   sodipodi:docname="vertical-logo.svg">
  <defs
     id="defs3236">
    <linearGradient
       id="linearGradient5742">
      <stop
         style="stop-color:#73d216;stop-opacity:1;"
         offset="0"
         id="stop5744" />
      <stop
         id="stop5750"
         offset="0.81566811"
         style="stop-color:#4a890d;stop-opacity:1;" />
      <stop
         style="stop-color:#76d715;stop-opacity:1;"
         offset="1"
         id="stop5746" />
    </linearGradient>
    <linearGradient
       id="linearGradient5775">
      <stop
         style="stop-color:#aef16e;stop-opacity:1;"
         offset="0"
         id="stop5777" />
      <stop
         style="stop-color:#518417;stop-opacity:1"
         offset="1"
         id="stop5779" />
    </linearGradient>
    <clipPath
       clipPathUnits="userSpaceOnUse"
       id="clipPath3749">
      <ellipse
         style="display:inline;overflow:visible;visibility:visible;opacity:1;fill:#ff0000;fill-opacity:1;fill-rule:nonzero;stroke:#ff0000;stroke-width:8.10270214;stroke-linecap:butt;stroke-linejoin:miter;stroke-miterlimit:4;stroke-dasharray:none;stroke-dashoffset:0;stroke-opacity:1;marker:none;marker-start:none;marker-mid:none;marker-end:none;enable-background:accumulate"
         id="ellipse3751"
         cx="321.66568"
         cy="165.63318"
         rx="149.26546"
         ry="142.45618" />
    </clipPath>
    <linearGradient
       id="linearGradient172">
      <stop
         style="stop-color:#3f2600;stop-opacity:0.6;"
         offset="0"
         id="stop173" />
      <stop
         style="stop-color:#3f2600;stop-opacity:0;"
         offset="1"
         id="stop174" />
    </linearGradient>
    <linearGradient
       id="linearGradient153">
      <stop
         style="stop-color:#ffeed7;stop-opacity:1;"
         offset="0"
         id="stop154" />
      <stop
         style="stop-color:#bdbfc2;stop-opacity:1;"
         offset="1"
         id="stop155" />
    </linearGradient>
    <linearGradient
       id="linearGradient162">
      <stop
         style="stop-color:#ffa63f;stop-opacity:1;"
         offset="0"
         id="stop163" />
      <stop
         style="stop-color:#ffff00;stop-opacity:1;"
         offset="1"
         id="stop164" />
    </linearGradient>
    <clipPath
       id="clipPath863"
       clipPathUnits="userSpaceOnUse">
      <circle
         inkscape:label="mask"
         r="23.603168"
         cy="26.062571"
         cx="24.064386"
         id="circle865"
         style="opacity:1;vector-effect:none;fill:#ffffff;fill-opacity:1;stroke:none;stroke-width:16.57841492;stroke-linecap:butt;stroke-linejoin:miter;stroke-miterlimit:4;stroke-dasharray:none;stroke-dashoffset:0;stroke-opacity:1;paint-order:markers stroke fill" />
    </clipPath>
  </defs>
  <sodipodi:namedview
     id="base"
     pagecolor="#ffffff"
     bordercolor="#666666"
     borderopacity="1.0"
     inkscape:pageopacity="0.0"
     inkscape:pageshadow="2"
     inkscape:zoom="1.6970563"
     inkscape:cx="175.04842"
     inkscape:cy="138.8991"
     inkscape:current-layer="layer1"
     inkscape:document-units="px"
     showgrid="false"
     inkscape:window-width="1920"
     inkscape:window-height="1046"
     inkscape:window-x="1366"
     inkscape:window-y="0"
     inkscape:window-maximized="1"
     fit-margin-top="10"
     fit-margin-left="10"
     fit-margin-bottom="10"
     fit-margin-right="10"
     showguides="true"
     inkscape:guide-bbox="true">
    <sodipodi:guide
       position="-69.532167,16"
       orientation="0,1"
       id="guide903"
       inkscape:locked="false"
       inkscape:label=""
       inkscape:color="rgb(0,0,255)" />
    <sodipodi:guide
       position="16,260.451"
       orientation="1,0"
       id="guide905"
       inkscape:locked="false"
       inkscape:label=""
       inkscape:color="rgb(0,0,255)" />
    <sodipodi:guide
       position="-38.890873,240"
       orientation="0,1"
       id="guide907"
       inkscape:locked="false"
       inkscape:label=""
       inkscape:color="rgb(0,0,255)" />
    <sodipodi:guide
       position="16,128.45773"
       orientation="1,0"
       id="guide909"
       inkscape:locked="false" />
    <sodipodi:guide
       position="240,92.513137"
       orientation="1,0"
       id="guide911"
       inkscape:locked="false"
       inkscape:label=""
       inkscape:color="rgb(0,0,255)" />
    <sodipodi:guide
       position="37.123106,54"
       orientation="0,1"
       id="guide913"
       inkscape:locked="false"
       inkscape:label=""
       inkscape:color="rgb(0,0,255)" />
    <sodipodi:guide
       position="-30.833333,70"
       orientation="0,1"
       id="guide915"
       inkscape:locked="false"
       inkscape:label=""
       inkscape:color="rgb(0,0,255)" />
  </sodipodi:namedview>
  <metadata
     id="metadata3239">
    <rdf:RDF>
      <cc:Work
         rdf:about="">
        <dc:format>image/svg+xml</dc:format>
        <dc:type
           rdf:resource="http://purl.org/dc/dcmitype/StillImage" />
        <dc:title></dc:title>
      </cc:Work>
    </rdf:RDF>
  </metadata>
  <g
     id="layer1"
     inkscape:label="Layer 1"
     inkscape:groupmode="layer"
     transform="translate(-250.743,-387.8479)">
    <rect
       style="fill:#424242;fill-opacity:1;stroke:none;stroke-width:2.12367702"
       id="rect875"
       width="256"
       height="256"
       x="250.743"
       y="387.8479" />
    <g
       transform="matrix(3.6012114,0,0,3.6012114,292.08205,394.99107)"
       clip-path="url(#clipPath863)"
       mask="none"
       id="g949">
      <circle
         style="opacity:1;vector-effect:none;fill:#dcedc8;fill-opacity:1;stroke:none;stroke-width:16.57841492;stroke-linecap:butt;stroke-linejoin:miter;stroke-miterlimit:4;stroke-dasharray:none;stroke-dashoffset:0;stroke-opacity:1;paint-order:markers stroke fill"
         id="path849"
         cx="24.064386"
         cy="26.062571"
         r="23.603168"
         inkscape:label="green-circle" />
      <rect
         style="opacity:1;vector-effect:none;fill:#9ccc65;fill-opacity:1;stroke:none;stroke-width:2.40725827;stroke-linecap:butt;stroke-linejoin:miter;stroke-miterlimit:4;stroke-dasharray:none;stroke-dashoffset:0;stroke-opacity:1;paint-order:markers stroke fill"
         id="rect1034"
         width="77.236275"
         height="28.030279"
         x="31.138479"
         y="-5.580708"
         inkscape:transform-center-x="-11.417899"
         inkscape:transform-center-y="12.640212"
         transform="rotate(28.013074)"
         inkscape:label="shadow" />
      <g
         id="g1032"
         inkscape:label="tux"
         transform="matrix(2.4072583,0,0,2.4072583,-35.606733,-11.004392)">
        <polygon
           id="polygon2"
           points="20.1,18.2 20.2,20.5 18.6,23.5 16.1,28.4 15.6,32.5 17.4,38.3 21.5,40.6 27.7,40.6 33.5,36.2 36.1,29.3 30.1,22 28.4,17.9 "
           style="fill:#eceff1" />
        <path
           id="path4"
           d="M 34.3,23.9 C 32.7,21.6 31.4,20.2 30.7,17.3 30,14.4 30.9,15.2 30.3,12.7 30,11.4 29.5,10.5 29,9.8 28.4,9.1 27.7,8.7 27.3,8.6 c -0.9,-0.5 -3,-1.3 -5.6,0.1 -2.7,1.4 -2.4,4.4 -1.9,10.5 0,0.4 -0.1,0.9 -0.3,1.3 -0.4,0.9 -1.1,1.7 -1.7,2.4 -0.7,1 -1.4,2 -1.9,3.1 -1.2,2.3 -2.3,5.2 -2,6.3 0.5,-0.1 6.8,9.5 6.8,9.7 0.4,-0.1 2.1,-0.1 3.6,-0.1 2.1,-0.1 3.3,-0.2 5,0.2 0,-0.3 -0.1,-0.6 -0.1,-0.9 0,-0.6 0.1,-1.1 0.2,-1.8 0.1,-0.5 0.2,-1 0.3,-1.6 -1,0.9 -2.8,1.9 -4.5,2.2 -1.5,0.3 -4,-0.2 -5.2,-1.7 0.1,0 0.3,0 0.4,-0.1 0.3,-0.1 0.6,-0.2 0.7,-0.4 0.3,-0.5 0.1,-1 -0.1,-1.3 -0.2,-0.3 -1.7,-1.4 -2.4,-2 -0.7,-0.6 -1.1,-0.9 -1.5,-1.3 0,0 -0.6,-0.6 -0.8,-0.8 C 16.1,32.2 16,32 15.9,31.9 15.7,31.4 15.6,30.8 15.7,30 c 0.1,-1.1 0.5,-2 1,-3 0.2,-0.4 0.7,-1.2 0.7,-1.2 0,0 -1.7,4.2 -0.8,5.5 0,0 0.1,-1.3 0.5,-2.6 0.3,-0.9 0.8,-2.2 1.4,-2.9 0.6,-0.7 2.1,-3.3 2.2,-4.9 0,-0.7 0.1,-1.4 0.1,-1.9 -0.4,-0.4 6.6,-1.4 7,-0.3 0.1,0.4 1.5,4 2.3,5.9 0.4,0.9 0.9,1.7 1.2,2.7 0.3,1.1 0.5,2.6 0.5,4.1 0,0.3 0,0.8 -0.1,1.3 0.2,0 4.1,-4.2 -0.5,-7.7 0,0 2.8,1.3 2.9,3.9 0.1,2.1 -0.8,3.8 -1,4.1 0.1,0 2.1,0.9 2.2,0.9 0.4,0 1.2,-0.3 1.2,-0.3 0.1,-0.3 0.4,-1.1 0.4,-1.4 0.7,-2.3 -1,-6 -2.6,-8.3 z"
           inkscape:connector-curvature="0"
           style="fill:#263238" />
        <ellipse
           style="fill:#eceff1"
           cx="21.6"
           cy="15.3"
           rx="1.3"
           ry="2"
           id="ellipse6" />
        <ellipse
           style="fill:#212121;stroke-width:0.9999938"
           transform="rotate(-97.203901)"
           cx="-18.114721"
           cy="19.514212"
           rx="1.1999925"
           ry="0.69999564"
           id="ellipse12" />
        <g
           id="g24">
          <path
             id="path18"
             d="m 39.3,37.6 c -0.4,-0.2 -1.1,-0.5 -1.7,-1.4 -0.3,-0.5 -0.2,-1.9 -0.7,-2.5 -0.3,-0.4 -0.7,-0.2 -0.8,-0.2 -0.9,0.2 -3,1.6 -4.4,0 -0.2,-0.2 -0.5,-0.5 -1,-0.5 -0.5,0 -0.7,0.2 -0.9,0.6 -0.2,0.4 -0.2,0.7 -0.2,1.7 0,0.8 0,1.7 -0.1,2.4 -0.2,1.7 -0.5,2.7 -0.5,3.7 0,1.1 0.3,1.8 0.7,2.1 0.3,0.3 0.8,0.5 1.9,0.5 1.1,0 1.8,-0.4 2.5,-1.1 0.5,-0.5 0.9,-0.7 2.3,-1.7 1.1,-0.7 2.8,-1.6 3.1,-1.9 0.2,-0.2 0.5,-0.3 0.5,-0.9 0,-0.5 -0.4,-0.7 -0.7,-0.8 z"
             inkscape:connector-curvature="0"
             style="fill:#ffc107" />
          <path
             id="path20"
             d="m 19.2,37.9 c -1,-1.6 -1.1,-1.9 -1.8,-2.9 -0.6,-1 -1.9,-2.9 -2.7,-2.9 -0.6,0 -0.9,0.3 -1.3,0.7 -0.4,0.4 -0.8,1.3 -1.5,1.8 -0.6,0.5 -2.3,0.4 -2.7,1 -0.4,0.6 0.4,1.5 0.4,3 0,0.6 -0.5,1 -0.6,1.4 -0.1,0.5 -0.2,0.8 0,1.2 0.4,0.6 0.9,0.8 4.3,1.5 1.8,0.4 3.5,1.4 4.6,1.5 1.1,0.1 3,0 3,-2.7 0.1,-1.6 -0.8,-2 -1.7,-3.6 z"
             inkscape:connector-curvature="0"
             style="fill:#ffc107" />
          <path
             id="path22"
             d="M 21.1,19.8 C 20.5,19.4 20,19 20,18.4 c 0,-0.6 0.4,-0.8 1,-1.3 0.1,-0.1 1.2,-1.1 2.3,-1.1 1.1,0 2.4,0.7 2.9,0.9 0.9,0.2 1.8,0.4 1.7,1.1 -0.1,1 -0.2,1.2 -1.2,1.7 -0.7,0.2 -2,1.3 -2.9,1.3 -0.4,0 -1,0 -1.4,-0.1 -0.3,-0.1 -0.8,-0.6 -1.3,-1.1 z"
             inkscape:connector-curvature="0"
             style="fill:#ffc107" />
        </g>
        <g
           id="g32">
          <path
             id="path26"
             d="m 20.9,19 c 0.2,0.2 0.5,0.4 0.8,0.5 0.2,0.1 0.5,0.2 0.5,0.2 0.4,0 0.7,0 0.9,0 0.5,0 1.2,-0.2 1.9,-0.6 0.7,-0.3 0.8,-0.5 1.3,-0.7 0.5,-0.3 1,-0.6 0.8,-0.7 -0.2,-0.1 -0.4,0 -1.1,0.4 -0.6,0.4 -1.1,0.6 -1.7,0.9 -0.3,0.1 -0.7,0.3 -1,0.3 -0.3,0 -0.6,0 -0.9,0 -0.3,0 -0.5,-0.1 -0.8,-0.2 -0.2,-0.1 -0.3,-0.2 -0.4,-0.2 -0.2,-0.1 -0.6,-0.5 -0.8,-0.6 0,0 -0.2,0 -0.1,0.1 0.3,0.3 0.4,0.4 0.6,0.6 z"
             inkscape:connector-curvature="0"
             style="fill:#634703" />
          <path
             id="path28"
             d="m 23.9,16.8 c 0.1,0.2 0.3,0.2 0.4,0.3 0.1,0.1 0.2,0.1 0.2,0.1 0.1,-0.1 0,-0.3 -0.1,-0.3 0,-0.2 -0.5,-0.2 -0.5,-0.1 z"
             inkscape:connector-curvature="0"
             style="fill:#634703" />
          <path
             id="path30"
             d="m 22.3,17 c 0,0.1 0.2,0.2 0.2,0.1 0.1,-0.1 0.2,-0.2 0.3,-0.2 0.2,-0.1 0.1,-0.2 -0.2,-0.2 -0.2,0.1 -0.2,0.2 -0.3,0.3 z"
             inkscape:connector-curvature="0"
             style="fill:#634703" />
        </g>
        <path
           id="path34"
           d="m 32,34.7 c 0,0.1 0,0.2 0,0.3 0.2,0.4 0.7,0.5 1.1,0.5 0.6,0 1.2,-0.4 1.5,-0.8 0,-0.1 0.1,-0.2 0.2,-0.3 0.2,-0.3 0.3,-0.5 0.4,-0.6 0,0 -0.1,-0.1 -0.1,-0.2 -0.1,-0.2 -0.4,-0.4 -0.8,-0.5 -0.3,-0.1 -0.8,-0.2 -1,-0.2 -0.9,-0.1 -1.4,0.2 -1.7,0.5 0,0 0.1,0 0.1,0.1 0.2,0.2 0.3,0.4 0.3,0.7 0.1,0.2 0,0.3 0,0.5 z"
           inkscape:connector-curvature="0"
           style="fill:#455a64" />
        <path
           sodipodi:nodetypes="cssscccc"
           d="m 24.429021,15.216885 c 0.164179,0.236844 0.637135,0.04993 1.024838,-0.124011 0.289132,-0.129717 0.602398,-0.242165 0.762874,-0.247323 0.186176,-0.006 0.594608,0.0375 0.852253,0.265129 0.254937,0.22524 0.526503,0.616108 0.664577,0.397054 0.316718,-0.536817 -0.174135,-0.756189 -0.438354,-1.011825 -0.518873,-0.27082 -0.688795,-0.338474 -1.075522,-0.326044 -0.685544,0.0032 -2.048995,0.574466 -1.790666,1.04702 z"
           id="path116-9-3"
           style="fill:#eceff1;fill-opacity:1;stroke:none;stroke-width:0.05301012"
           inkscape:connector-curvature="0" />
      </g>
    </g>
    <text
       id="text876"
       y="627.31262"
       x="264.12009"
       style="font-style:normal;font-weight:normal;font-size:53.52868652px;line-height:1.25;font-family:sans-serif;letter-spacing:0px;word-spacing:0px;fill:#ffffff;fill-opacity:1;stroke:none;stroke-width:1.33821738;"
       xml:space="preserve"><tspan
         style="font-style:normal;font-variant:normal;font-weight:normal;font-stretch:normal;font-family:FifthLeg;-inkscape-font-specification:FifthLeg;fill:#ffffff;stroke-width:1.33821738;"
         y="627.31262"
         x="264.12009"
         id="tspan874"
         sodipodi:role="line">Kamarada</tspan></text>
  </g>
</svg>
