<?xml version="1.0" encoding="UTF-8" standalone="no"?>
<svg
   version="1.0"
   width="256.000000pt"
   height="256.000000pt"
   viewBox="0 0 256.000000 256.000000"
   preserveAspectRatio="xMidYMid meet"
   id="svg5"
   sodipodi:docname="potrace.svg"
   inkscape:version="1.4.2 (ebf0e940d0, 2025-05-08)"
   inkscape:export-filename="logo_white.png"
   inkscape:export-xdpi="72"
   inkscape:export-ydpi="72"
   xmlns:inkscape="http://www.inkscape.org/namespaces/inkscape"
   xmlns:sodipodi="http://sodipodi.sourceforge.net/DTD/sodipodi-0.dtd"
   xmlns="http://www.w3.org/2000/svg"
   xmlns:svg="http://www.w3.org/2000/svg">
  <defs
     id="defs5" />
  <sodipodi:namedview
     id="namedview5"
     pagecolor="#ffffff"
     bordercolor="#000000"
     borderopacity="0.25"
     inkscape:showpageshadow="2"
     inkscape:pageopacity="0.0"
     inkscape:pagecheckerboard="0"
     inkscape:deskcolor="#d1d1d1"
     inkscape:document-units="pt"
     inkscape:zoom="1.2968228"
     inkscape:cx="268.34815"
     inkscape:cy="103.71502"
     inkscape:window-width="1870"
     inkscape:window-height="1011"
     inkscape:window-x="0"
     inkscape:window-y="0"
     inkscape:window-maximized="1"
     inkscape:current-layer="svg5" />
  <metadata
     id="metadata1">
Created by potrace 1.16, written by Peter Selinger 2001-2019
</metadata>
  <path
     d="M 127.19238,0 C 56.94081,0 0,56.940816 0,127.19238 c 0,36.60723 15.46072,69.60095 40.20996,92.80664 l 4.78271,-5.70556 c 7.6,-9.1 12.7999,-18.10049 15.3999,-26.50049 l 2.10059,-7.00049 -1.8999,-24.49951 c -2.5,-32.1 -2.50108,-69.400587 -0.10108,-80.100587 2.2,-9.6 7.40127,-20.299903 12.80127,-25.899903 8,-8.3 21.79942,-15.600195 35.39942,-18.700195 3.9,-0.9 10.50049,-1.199023 19.00049,-0.999023 14.6,0.3 18.79912,1.399218 35.09912,9.199218 13.7,6.5 20.30019,13.300391 27.70019,28.400391 3.1,6.3 6.90088,15.999512 8.40088,21.499512 2.5,9.299996 2.69903,11.200877 2.49903,27.900877 -0.1,14.6 0.1999,19.69902 1.8999,27.99902 3.8,19.1 11.10107,37.50127 21.10107,53.30127 1.74051,2.74464 2.80785,4.90626 3.20362,6.39551 16.7887,-21.55418 26.78906,-48.65675 26.78906,-78.09668 C 254.38623,56.940816 197.44395,0 127.19238,0 Z m -41.1167,100.07959 c -2.82542,-0.0904 -5.71143,0.95098 -8.3833,3.31348 -6.5,5.7 -7.99951,9.79931 -7.99951,22.29931 0,10 0.1997,11.5001 2.6997,16.1001 1.4,2.7 3.29971,5.60029 4.19971,6.30029 1.4,1.2 1.0001,1.79981 -3.3999,5.29981 -5.7,4.5 -7.99951,8.1998 -7.99951,12.7998 0,4 1.3,6.50049 6,11.50049 l 3.7998,4.00049 -0.89941,12.09961 c -0.6,9.3 -1.4002,14.2 -3.7002,21 -2.72053,8.07914 -7.00347,18.06122 -8.92822,21.31787 19.18141,11.59957 41.67394,18.27539 65.72754,18.27539 23.9187,0 46.29434,-6.60103 65.40528,-18.08057 -2.46993,-4.71766 -11.66878,-27.57401 -21.10547,-52.41211 -4.2,-11.1 -4.59893,-12.90029 -4.39893,-19.80029 0.3,-10 -1.40088,-11.6999 -14.40088,-15.3999 -3.3,-0.9 -10.89951,-3.6 -16.99951,-6 -13.3,-5.4 -23.50049,-7.80078 -29.50049,-7.30078 l -4.59961,0.50097 0.7002,-5.10058 c 0.4,-2.8 0.1997,-7.69951 -0.3003,-10.99951 -1.86875,-11.85938 -8.69649,-19.48276 -15.91699,-19.71387 z m 60.2168,11.11377 c -10.2,0.1 -24.59893,7.5999 -23.89893,12.3999 0.5,3.2 4.29922,3.1001 13.69922,-0.3999 4.5,-1.6 9.6002,-3 11.2002,-3 4.2,0 8.90029,2.19892 12.30029,5.89892 1.7,1.7 3.49932,3.10108 4.29932,3.10108 1.4,0 3.30029,-3.1001 3.30029,-5.6001 0,-2.4 -6.29971,-8.00039 -11.69971,-10.40039 -2.5,-1.1 -6.60068,-1.99951 -9.20068,-1.99951 z m -61.34034,2.10498 c 1.58204,-0.0254 3.06592,0.85742 4.94092,2.79492 3.3,3.2 5.29981,8.89971 5.29981,14.69971 0,6.3 -0.89971,7.80039 -5.69971,10.40039 -5.4,2.9 -6.80049,2.29951 -10.00049,-4.00049 -3.9,-7.5 -2.49912,-19.9999 2.40088,-22.8999 1.125,-0.6375 2.10938,-0.9794 3.05859,-0.99463 z m 32.86964,30.93457 c 1.23222,0.01 2.76416,0.54756 4.17041,1.56006 2.2,1.5 2.9,3.89922 1.5,4.69922 -1.2,0.7 -8.39883,-4.29981 -7.79883,-5.29981 0.39375,-0.65625 1.17002,-0.96716 2.12842,-0.95947 z m -18.1919,0.0102 c 1.3375,-0.1 2.61299,0.19922 3.06299,0.94922 0.3,0.6 -0.19971,1.30069 -1.19971,1.70069 -1,0.3 -2.60098,1.29912 -3.50098,2.09912 -1.6,1.3 -1.79941,1.30078 -2.39941,-0.19922 -0.3,-0.9 -0.0994,-2.29961 0.60058,-3.09961 0.7,-0.85 2.09903,-1.3502 3.43653,-1.4502 z m 56.24854,12.09375 c 0.91582,-0.031 1.46455,0.34366 1.91455,1.05616 1,1.6 -2.59961,4.19921 -16.59961,12.19921 -19.9,11.2 -24.60108,12.90039 -37.60108,13.40039 -10.8,0.4 -11.39902,0.29991 -17.49902,-2.60009 -4,-2 -8.59991,-5.29961 -12.39991,-9.09961 -6.4,-6.5 -5.6999,-8.4 1.1001,-3 10.7,8.6 25.69991,12.00049 37.89991,8.50049 5.5,-1.6 17.29931,-7.40108 34.29931,-16.60108 4.8125,-2.625 7.35938,-3.80371 8.88575,-3.85547 z"
     style="baseline-shift:baseline;display:inline;overflow:visible;vector-effect:none;fill:#ffffff;enable-background:accumulate;stop-color:#000000;stop-opacity:1"
     id="path15" />
</svg>
