<?xml version="1.0" standalone="no"?>
<!DOCTYPE svg PUBLIC "-//W3C//DTD SVG 20010904//EN"
 "http://www.w3.org/TR/2001/REC-SVG-20010904/DTD/svg10.dtd">
<svg version="1.0" xmlns="http://www.w3.org/2000/svg"
 width="256.000000pt" height="256.000000pt" viewBox="0 0 256.000000 256.000000"
 preserveAspectRatio="xMidYMid meet">
<metadata>
Created by potrace 1.16, written by Peter Selinger 2001-2019
</metadata>
<g transform="translate(0.000000,256.000000) scale(0.100000,-0.100000)"
fill="#000000" stroke="none">
<path d="M1095 2236 c-136 -31 -274 -104 -354 -187 -54 -56 -106 -163 -128
-259 -24 -107 -24 -480 1 -801 l19 -245 -21 -70 c-26 -84 -78 -174 -154 -265
l-57 -68 37 -33 c41 -37 166 -128 176 -128 9 0 65 126 98 224 23 68 31 117 37
210 l9 121 -38 40 c-47 50 -60 75 -60 115 0 46 23 83 80 128 44 35 48 41 34
53 -9 7 -28 36 -42 63 -25 46 -27 61 -27 161 0 125 15 166 80 223 95 84 217 1
243 -164 5 -33 7 -82 3 -110 l-7 -51 46 5 c60 5 162 -19 295 -73 61 -24 137
-51 170 -60 130 -37 147 -54 144 -154 -2 -69 2 -87 44 -198 106 -279 209 -533
217 -533 38 0 331 255 345 302 4 12 -7 40 -33 81 -100 158 -173 342 -211 533
-17 83 -20 134 -19 280 2 167 0 186 -25 279 -15 55 -53 152 -84 215 -74 151
-140 219 -277 284 -163 78 -205 89 -351 92 -85 2 -151 -1 -190 -10z m468 -816
c54 -24 117 -80 117 -104 0 -25 -19 -56 -33 -56 -8 0 -26 14 -43 31 -34 37
-81 59 -123 59 -16 0 -67 -14 -112 -30 -94 -35 -132 -36 -137 -4 -7 48 137
123 239 124 26 0 67 -9 92 -20z"/>
<path d="M827 1409 c-49 -29 -63 -154 -24 -229 32 -63 46 -69 100 -40 48 26
57 41 57 104 0 58 -20 115 -53 147 -30 31 -50 35 -80 18z"/>
<path d="M970 1095 c-7 -8 -9 -22 -6 -31 6 -15 8 -15 24 -2 9 8 25 18 35 21
10 4 15 11 12 17 -9 15 -51 12 -65 -5z"/>
<path d="M1165 1100 c-6 -10 66 -60 78 -53 14 8 7 32 -15 47 -25 18 -54 21
-63 6z"/>
<path d="M1478 950 c-170 -92 -288 -150 -343 -166 -122 -35 -272 -1 -379 85
-68 54 -75 35 -11 -30 38 -38 84 -71 124 -91 61 -29 67 -30 175 -26 130 5 177
22 376 134 140 80 176 106 166 122 -12 19 -31 14 -108 -28z"/>
</g>
</svg>
